<svg xmlns="http://www.w3.org/2000/svg" version="1.1" xmlns:xlink="http://www.w3.org/1999/xlink" xmlns:svgjs="http://svgjs.dev/svgjs" width="1000" height="1000"><style>
    #light-icon {
      display: inline;
    }
    #dark-icon {
      display: none;
    }

    @media (prefers-color-scheme: dark) {
      #light-icon {
        display: none;
      }
      #dark-icon {
        display: inline;
      }
    }
  </style><g id="light-icon"><svg xmlns="http://www.w3.org/2000/svg" version="1.1" xmlns:xlink="http://www.w3.org/1999/xlink" xmlns:svgjs="http://svgjs.dev/svgjs" width="1000" height="1000"><g><g transform="matrix(8.333333333333334,0,0,8.333333333333334,-5.684341886080802e-14,-5.684341886080802e-14)"><svg xmlns="http://www.w3.org/2000/svg" version="1.1" xmlns:xlink="http://www.w3.org/1999/xlink" xmlns:svgjs="http://svgjs.dev/svgjs" width="120" height="120"><svg version="1.1" id="svg1" xmlns:sodipodi="http://sodipodi.sourceforge.net/DTD/sodipodi-0.dtd" xmlns:inkscape="http://www.inkscape.org/namespaces/inkscape" xmlns:svg="http://www.w3.org/2000/svg" inkscape:version="1.4 (86a8ad7, 2024-10-11)" sodipodi:docname="logo-blue-atomtech.svg" xmlns="http://www.w3.org/2000/svg" xmlns:xlink="http://www.w3.org/1999/xlink" x="0px" y="0px" viewBox="0 0 120 120" style="enable-background:new 0 0 120 120;" xml:space="preserve">
<style type="text/css">
	.st0{fill:#DD4343;}
</style>
<sodipodi:namedview bordercolor="#000000" borderopacity="0.25" id="namedview1" inkscape:current-layer="svg1" inkscape:cx="23.528201" inkscape:cy="1.0644584" inkscape:deskcolor="#d1d1d1" inkscape:pagecheckerboard="0" inkscape:pageopacity="0.0" inkscape:showpageshadow="2" inkscape:window-height="1398" inkscape:window-maximized="1" inkscape:window-width="2256" inkscape:window-x="-11" inkscape:window-y="-11" inkscape:zoom="13.621951" pagecolor="#ffffff">
	</sodipodi:namedview>
<g>
	<path class="st0" d="M89.6,53.6c-1.2,0-2.4,0.4-3.3,1c0,0,0,0,0,0c-1,0.7-1.8,1.7-2.2,3c0,0.1-0.1,0.2-0.1,0.2
		c0,0.1-0.1,0.2-0.1,0.3c0,0.1-0.1,0.2-0.1,0.4c0,0.1,0,0.2,0,0.3c0,0.2,0,0.4,0,0.7c0,3.2,2.6,5.9,5.9,5.9c0.4,0,0.8,0,1.2-0.1
		c2.7-0.5,4.7-2.9,4.7-5.8C95.5,56.2,92.9,53.6,89.6,53.6z"></path>
	<ellipse transform="matrix(0.9871 -0.1602 0.1602 0.9871 -8.8341 10.3443)" class="st0" cx="59.7" cy="60" rx="10.7" ry="10.7"></ellipse>
	<path class="st0" d="M41.7,77.9c-5.1-6.9-8.4-12.3-8.4-12.3s3.1,5.4,7.9,12.8C41.5,78.2,41.5,78.2,41.7,77.9z"></path>
	<ellipse transform="matrix(0.9871 -0.1602 0.1602 0.9871 -6.2759 4.293)" class="st0" cx="23.5" cy="41.1" rx="5.1" ry="5.1"></ellipse>
	<path class="st0" d="M25.4,47.7c0.5,1.5,1,3.3,1.8,4.9c1,2.6-0.5-2-1.5-5.1L25.4,47.7z"></path>
	<path class="st0" d="M120,60c0-8.2-9.5-15.5-24.2-20.1c6.8-26.8-4.4-30.5-4.4-30.5c-9.5-4.7-21.1,0.1-32.2,9.8
		C48.3,9.5,36.9,4.7,27.4,9.4c0,0-9.4,3.3-5.6,25.3c0.3,0,0.8-0.3,1.3-0.3c-1-9.4-0.8-19.7,5.6-23c7.3-4.1,17.4,1,27.4,10.7
		c-4.2,4-8.2,8.7-12,13.7c-4.9,0.5-9.7,1.3-14.5,2.5c0.3,0.3,0.3,0.8,0.3,1c4.4-1,9-1.9,13.5-2.5c-9.4,12.8-17,27.9-20.6,41.3
		c-12.3-4.3-20-10.8-20-18.1c0-6.1,5.6-11.7,14.6-16.1c-0.3-0.5-0.3-0.8-0.5-1.3C6.4,47,0,53.1,0,60c0,7.9,8.8,14.9,22.5,19.5
		c-3.5,13.9-2.4,25.8,5.9,31c10.1,5,21.3-1,31-10.1C69,109.6,80,115.6,90,110.6c8.1-5.2,9.2-16.9,5.9-30.6
		C110.5,75.5,120,68.2,120,60z M90.1,11.5c7.7,4.1,6.9,17.8,4.9,28.3c-6.3-1.9-13.4-3.3-21.1-4c-3.7-5-7.6-9.6-11.6-13.6
		C72.5,12.4,82.7,7.3,90.1,11.5z M59.2,25.2c2.9,3,5.8,6.4,8.5,10C65.2,35.1,62.6,35,60,35c-3.2,0-6.4,0.1-9.5,0.3
		C53.3,31.7,56.2,28.3,59.2,25.2z M88.7,108.3c-8.6,4.4-18.8-0.9-28.1-9.1c4.8-4.6,9.2-9.9,12.9-14.8c6.9-0.7,13.3-1.8,19-3.4
		C96.3,94.1,96,104.8,88.7,108.3z M95.5,78.5c-1-3.9-2.4-7.9-4-12c-0.8,0.3-1.5,0.3-2,0.3c-0.8,0-1.8-0.3-2.6-0.5
		c2.1,4.6,3.8,9.1,5.2,13.4c-5.3,1.5-11.1,2.7-17.5,3.4c6.5-8.8,10.7-16.3,11.2-17.1v0c-0.5,0.8-5.3,8.5-12.4,17.2
		c-4.4,0.4-8.9,0.7-13.6,0.7c-2.5,0-4.9-0.1-7.2-0.2c0,0.4-0.1,0.8-0.3,1.3c2.5,0.1,5.1,0.2,7.7,0.2c4.2,0,8.2-0.2,12.2-0.5
		c-3.8,4.6-8.2,9.4-12.8,13.6c-3.3-3-6.4-6.3-9.2-9.7c-0.3,0.3-0.8,0.5-1,0.8c2.8,3.5,5.8,6.9,9,10.1c-9.4,8.1-19.7,13.5-28.5,9.3
		c-7.5-3.6-7.7-14.6-3.6-27.9c4.2,1.2,8.7,2.2,13.5,2.9c0-0.1-0.1-0.3-0.1-0.4c0-0.3,0.1-0.6,0.2-0.9c-4.8-0.7-9.2-1.7-13.2-2.9
		c4.4-13.8,13.3-29.9,23.4-43.1c3.3-0.3,6.7-0.4,9.9-0.4c2.9,0,5.8,0.1,8.6,0.3C73.3,42.6,78,50,82,57.4c0.5-1.5,1.5-3.1,3.1-3.8
		c-3.1-5.9-6.7-11.7-10.5-17c7.5,0.8,14.4,2.3,20.3,4.2c-1.2,6-2.7,10.7-2.9,11.5c1.5-4.2,2.7-7.9,3.6-11.3
		c13.1,4.4,21.4,11.1,21.4,18.7C116.9,67.3,108.6,74.1,95.5,78.5z"></path>
	<circle class="st0" cx="46" cy="83.1" r="5.1"></circle>
</g>
</svg></svg></g></g></svg></g><g id="dark-icon"><svg xmlns="http://www.w3.org/2000/svg" version="1.1" xmlns:xlink="http://www.w3.org/1999/xlink" xmlns:svgjs="http://svgjs.dev/svgjs" width="1000" height="1000"><g clip-path="url(#SvgjsClipPath1180)"><rect width="1000" height="1000" fill="#ece3ca"></rect><g transform="matrix(7.5,0,0,7.5,50,50)"><svg xmlns="http://www.w3.org/2000/svg" version="1.1" xmlns:xlink="http://www.w3.org/1999/xlink" xmlns:svgjs="http://svgjs.dev/svgjs" width="120" height="120"><svg version="1.1" id="svg1" xmlns:sodipodi="http://sodipodi.sourceforge.net/DTD/sodipodi-0.dtd" xmlns:inkscape="http://www.inkscape.org/namespaces/inkscape" xmlns:svg="http://www.w3.org/2000/svg" inkscape:version="1.4 (86a8ad7, 2024-10-11)" sodipodi:docname="logo-blue-atomtech.svg" xmlns="http://www.w3.org/2000/svg" xmlns:xlink="http://www.w3.org/1999/xlink" x="0px" y="0px" viewBox="0 0 120 120" style="enable-background:new 0 0 120 120;" xml:space="preserve">
<style type="text/css">
	.st0{fill:#DD4343;}
</style>
<sodipodi:namedview bordercolor="#000000" borderopacity="0.25" id="namedview1" inkscape:current-layer="svg1" inkscape:cx="23.528201" inkscape:cy="1.0644584" inkscape:deskcolor="#d1d1d1" inkscape:pagecheckerboard="0" inkscape:pageopacity="0.0" inkscape:showpageshadow="2" inkscape:window-height="1398" inkscape:window-maximized="1" inkscape:window-width="2256" inkscape:window-x="-11" inkscape:window-y="-11" inkscape:zoom="13.621951" pagecolor="#ffffff">
	</sodipodi:namedview>
<g>
	<path class="st0" d="M89.6,53.6c-1.2,0-2.4,0.4-3.3,1c0,0,0,0,0,0c-1,0.7-1.8,1.7-2.2,3c0,0.1-0.1,0.2-0.1,0.2
		c0,0.1-0.1,0.2-0.1,0.3c0,0.1-0.1,0.2-0.1,0.4c0,0.1,0,0.2,0,0.3c0,0.2,0,0.4,0,0.7c0,3.2,2.6,5.9,5.9,5.9c0.4,0,0.8,0,1.2-0.1
		c2.7-0.5,4.7-2.9,4.7-5.8C95.5,56.2,92.9,53.6,89.6,53.6z"></path>
	<ellipse transform="matrix(0.9871 -0.1602 0.1602 0.9871 -8.8341 10.3443)" class="st0" cx="59.7" cy="60" rx="10.7" ry="10.7"></ellipse>
	<path class="st0" d="M41.7,77.9c-5.1-6.9-8.4-12.3-8.4-12.3s3.1,5.4,7.9,12.8C41.5,78.2,41.5,78.2,41.7,77.9z"></path>
	<ellipse transform="matrix(0.9871 -0.1602 0.1602 0.9871 -6.2759 4.293)" class="st0" cx="23.5" cy="41.1" rx="5.1" ry="5.1"></ellipse>
	<path class="st0" d="M25.4,47.7c0.5,1.5,1,3.3,1.8,4.9c1,2.6-0.5-2-1.5-5.1L25.4,47.7z"></path>
	<path class="st0" d="M120,60c0-8.2-9.5-15.5-24.2-20.1c6.8-26.8-4.4-30.5-4.4-30.5c-9.5-4.7-21.1,0.1-32.2,9.8
		C48.3,9.5,36.9,4.7,27.4,9.4c0,0-9.4,3.3-5.6,25.3c0.3,0,0.8-0.3,1.3-0.3c-1-9.4-0.8-19.7,5.6-23c7.3-4.1,17.4,1,27.4,10.7
		c-4.2,4-8.2,8.7-12,13.7c-4.9,0.5-9.7,1.3-14.5,2.5c0.3,0.3,0.3,0.8,0.3,1c4.4-1,9-1.9,13.5-2.5c-9.4,12.8-17,27.9-20.6,41.3
		c-12.3-4.3-20-10.8-20-18.1c0-6.1,5.6-11.7,14.6-16.1c-0.3-0.5-0.3-0.8-0.5-1.3C6.4,47,0,53.1,0,60c0,7.9,8.8,14.9,22.5,19.5
		c-3.5,13.9-2.4,25.8,5.9,31c10.1,5,21.3-1,31-10.1C69,109.6,80,115.6,90,110.6c8.1-5.2,9.2-16.9,5.9-30.6
		C110.5,75.5,120,68.2,120,60z M90.1,11.5c7.7,4.1,6.9,17.8,4.9,28.3c-6.3-1.9-13.4-3.3-21.1-4c-3.7-5-7.6-9.6-11.6-13.6
		C72.5,12.4,82.7,7.3,90.1,11.5z M59.2,25.2c2.9,3,5.8,6.4,8.5,10C65.2,35.1,62.6,35,60,35c-3.2,0-6.4,0.1-9.5,0.3
		C53.3,31.7,56.2,28.3,59.2,25.2z M88.7,108.3c-8.6,4.4-18.8-0.9-28.1-9.1c4.8-4.6,9.2-9.9,12.9-14.8c6.9-0.7,13.3-1.8,19-3.4
		C96.3,94.1,96,104.8,88.7,108.3z M95.5,78.5c-1-3.9-2.4-7.9-4-12c-0.8,0.3-1.5,0.3-2,0.3c-0.8,0-1.8-0.3-2.6-0.5
		c2.1,4.6,3.8,9.1,5.2,13.4c-5.3,1.5-11.1,2.7-17.5,3.4c6.5-8.8,10.7-16.3,11.2-17.1v0c-0.5,0.8-5.3,8.5-12.4,17.2
		c-4.4,0.4-8.9,0.7-13.6,0.7c-2.5,0-4.9-0.1-7.2-0.2c0,0.4-0.1,0.8-0.3,1.3c2.5,0.1,5.1,0.2,7.7,0.2c4.2,0,8.2-0.2,12.2-0.5
		c-3.8,4.6-8.2,9.4-12.8,13.6c-3.3-3-6.4-6.3-9.2-9.7c-0.3,0.3-0.8,0.5-1,0.8c2.8,3.5,5.8,6.9,9,10.1c-9.4,8.1-19.7,13.5-28.5,9.3
		c-7.5-3.6-7.7-14.6-3.6-27.9c4.2,1.2,8.7,2.2,13.5,2.9c0-0.1-0.1-0.3-0.1-0.4c0-0.3,0.1-0.6,0.2-0.9c-4.8-0.7-9.2-1.7-13.2-2.9
		c4.4-13.8,13.3-29.9,23.4-43.1c3.3-0.3,6.7-0.4,9.9-0.4c2.9,0,5.8,0.1,8.6,0.3C73.3,42.6,78,50,82,57.4c0.5-1.5,1.5-3.1,3.1-3.8
		c-3.1-5.9-6.7-11.7-10.5-17c7.5,0.8,14.4,2.3,20.3,4.2c-1.2,6-2.7,10.7-2.9,11.5c1.5-4.2,2.7-7.9,3.6-11.3
		c13.1,4.4,21.4,11.1,21.4,18.7C116.9,67.3,108.6,74.1,95.5,78.5z"></path>
	<circle class="st0" cx="46" cy="83.1" r="5.1"></circle>
</g>
</svg></svg></g></g><defs><clipPath id="SvgjsClipPath1180"><rect width="1000" height="1000" x="0" y="0" rx="350" ry="350"></rect></clipPath></defs></svg></g></svg>