<?xml version="1.0" encoding="utf-8"?>
<!-- Generator: Adobe Illustrator 28.0.0, SVG Export Plug-In . SVG Version: 6.00 Build 0)  -->
<svg version="1.1" id="Layer_1" xmlns="http://www.w3.org/2000/svg" xmlns:xlink="http://www.w3.org/1999/xlink" x="0px" y="0px"
	 viewBox="0 0 24 24" style="enable-background:new 0 0 24 24;" xml:space="preserve">
<style type="text/css">
	.st0{fill:#DD4444;}
	.st1{fill:#DD4444;fill-opacity:0;}
</style>
<g>
	<sodipodi:namedview  bordercolor="#000000" borderopacity="0.25" id="namedview1" pagecolor="#ffffff"></sodipodi:namedview>
	<rect id="Rectangle_1-2" x="11.5" y="4" class="st0" width="0.7" height="0.7"/>
	<circle id="Ellipse_1-2" class="st0" cx="17.9" cy="11.9" r="1.2"/>
	<circle id="Ellipse_2-2" class="st0" cx="11.9" cy="12" r="2.1"/>
	<path id="Path_1-2" class="st0" d="M18.2,13c-0.3-0.7-0.6-1.4-1-2.1c-0.3,0.2-0.5,0.6-0.5,1l0,0c0.2,0.3,0.3,0.6,0.5,0.9
		c0.2,0.2,0.5,0.3,0.7,0.3C18,13.1,18.1,13.1,18.2,13L18.2,13z"/>
	<path id="Path_2-2" class="st0" d="M17.2,13.2c-0.3,0.4-6.7,10.7-11.2,8.5C0.8,19.2,12.8-0.6,18,2.3c2.5,1.3,0.5,7.7,0.4,8.2l0,0
		c2.8-7.6-0.1-8.6-0.1-8.6C11.6-1.4-0.1,18.5,5.7,22.1C10.7,24.6,16.9,13.7,17.2,13.2L17.2,13.2z"/>
	<path id="Path_4-2" class="st0" d="M18.3,13.3c-0.2,0.1-0.3,0.1-0.4,0.1c-0.2,0-0.4-0.1-0.5-0.1c1.7,3.8,2.3,7.5,0.4,8.4
		c-2.4,1.2-5.5-1.3-7.7-4c-0.1,0.1-0.2,0.1-0.2,0.2c2.3,2.9,5.4,5.7,8.2,4.3C20.1,20.8,19.8,17.2,18.3,13.3z"/>
	<path id="Path_5-2" class="st0" d="M8.3,15.6c-1-1.4-1.7-2.5-1.7-2.5s0.6,1.1,1.6,2.6C8.3,15.7,8.3,15.7,8.3,15.6z"/>
	<circle id="Ellipse_4-2" class="st0" cx="4.7" cy="8.2" r="1"/>
	<path id="Path_8-2" class="st0" d="M5.1,9.6c0.1,0.3,0.2,0.7,0.4,1C5.6,11.1,5.3,10.1,5.1,9.6L5.1,9.6z"/>
	<path id="Path_10-2" class="st0" d="M5.5,1.9c0,0-1.9,0.7-1.1,5.1c0.1,0,0.2-0.1,0.3-0.1C4.4,5,4.5,3,5.7,2.3
		c2.8-1.6,7.7,3.7,10.7,9.2c0.1-0.3,0.3-0.6,0.6-0.8C14.1,5.1,9.1,0.1,5.5,1.9z"/>
	<path id="svg_1" class="st1" d="M4.4,6.4"/>
	<g>
		<path class="st0" d="M12,7c-2,0-4.1,0.2-6.1,0.7C6,7.7,6,7.8,6,7.9c1.9-0.5,4-0.7,6-0.7c6.3,0,11.4,2.1,11.4,4.8
			s-5.1,4.8-11.4,4.8c-0.5,0-1,0-1.4,0c0,0.1,0,0.2-0.1,0.3c0.5,0,1,0,1.5,0c6.6,0,12-2.2,12-5S18.6,7,12,7z"/>
		<path class="st0" d="M7.9,16.7c0-0.1,0-0.1,0-0.2c-4.3-0.7-7.4-2.4-7.4-4.4c0-1.2,1.1-2.3,2.9-3.2c0-0.2,0-0.2,0-0.3
			C1.3,9.4,0,10.7,0,12C0,14.2,3.3,16,7.9,16.7L7.9,16.7z"/>
	</g>
	<circle id="Ellipse_3-2" class="st0" cx="9.2" cy="16.7" r="1"/>
</g>
</svg>
